<svg width="25" height="26" viewBox="0 0 25 26" fill="none" xmlns="http://www.w3.org/2000/svg">
<path d="M9 20C6.78125 20 5 18.2188 5 16C5 14.8125 5.5 13.75 6.34375 13C5.5 12.2812 5 11.2188 5 10C5 7.8125 6.78125 6 9 6C10.1875 6 11.25 6.53125 12 7.375C12.7188 6.53125 13.7812 6 15 6C17.1875 6 19 7.8125 19 10C19 11.2187 18.4688 12.2812 17.625 13C18.4688 13.75 19 14.8125 19 16C19 18.2188 17.1875 20 15 20C13.7813 20 12.7188 19.5 12 18.6562C11.25 19.5 10.1875 20 9 20ZM12 10.5C11.0938 10.5 10.2812 11 9.8125 11.75C9.375 12.5312 9.375 13.5 9.8125 14.25C10.2813 15.0312 11.0938 15.5 12 15.5C12.875 15.5 13.6875 15.0312 14.1563 14.25C14.5938 13.5 14.5938 12.5312 14.1563 11.75C13.6875 11 12.875 10.5 12 10.5Z" fill="#32293F"/>
</svg>
